<?xml version="1.0" standalone="no"?>
<!DOCTYPE svg PUBLIC "-//W3C//DTD SVG 20010904//EN"
 "http://www.w3.org/TR/2001/REC-SVG-20010904/DTD/svg10.dtd">
<svg version="1.0" xmlns="http://www.w3.org/2000/svg"
 width="600.000000pt" height="142.000000pt" viewBox="0 0 600.000000 142.000000"
 preserveAspectRatio="xMidYMid meet">
<metadata>
Created by potrace 1.15, written by Peter Selinger 2001-2017
</metadata>
<g transform="translate(0.000000,142.000000) scale(0.100000,-0.100000)"
fill="#000000" stroke="none">
<path d="M0 1172 l0 -197 295 -230 295 -230 0 -172 0 -173 40 0 40 0 -2 197
-3 197 -297 231 -297 230 0 173 -1 172 -35 0 -35 0 0 -198z"/>
<path d="M590 1360 c0 -6 -90 -10 -250 -10 l-250 0 0 -40 0 -40 250 0 250 0 0
-30 0 -30 -250 0 -250 0 0 -40 0 -40 250 0 250 0 0 -25 0 -25 -250 0 -250 0 0
-23 c0 -13 10 -33 23 -45 22 -21 32 -22 223 -22 l199 -1 -28 -24 c-27 -24 -34
-25 -158 -25 -71 0 -129 -3 -129 -6 0 -9 44 -43 56 -44 7 0 14 -7 18 -15 3
-10 19 -15 43 -15 28 0 34 -3 23 -10 -12 -8 -9 -14 17 -40 l32 -31 130 101
131 102 0 194 0 194 -40 0 c-22 0 -40 -4 -40 -10z"/>
<path d="M1010 965 l0 -95 45 0 45 0 0 55 0 55 125 0 125 0 -54 -82 c-29 -46
-110 -171 -180 -278 -105 -162 -126 -200 -126 -232 l0 -38 235 0 235 0 0 95 0
95 -40 0 -40 0 0 -55 0 -55 -135 0 c-74 0 -135 2 -135 4 0 3 79 126 175 274
156 239 175 273 175 310 l0 42 -225 0 -225 0 0 -95z"/>
<path d="M3890 1020 c0 -39 1 -40 35 -40 l35 0 0 -275 0 -275 -35 0 c-34 0
-35 -1 -35 -40 l0 -40 220 0 220 0 0 95 0 95 -40 0 -40 0 0 -55 0 -55 -95 0
-95 0 0 275 0 275 35 0 c34 0 35 1 35 40 l0 40 -120 0 -120 0 0 -40z"/>
<path d="M1580 925 c0 -43 1 -45 30 -45 l30 0 0 -225 0 -225 -30 0 c-28 0 -30
-2 -30 -40 l0 -40 115 0 115 0 0 40 c0 39 -1 40 -35 40 l-35 0 0 95 0 95 140
0 140 0 0 -95 0 -95 -30 0 c-28 0 -30 -2 -30 -40 l0 -40 115 0 115 0 0 40 c0
39 -1 40 -35 40 l-35 0 0 225 0 225 35 0 c35 0 35 0 35 45 l0 45 -115 0 -115
0 0 -45 c0 -43 1 -45 30 -45 l30 0 0 -90 0 -90 -140 0 -140 0 0 90 0 90 35 0
c35 0 35 0 35 45 l0 45 -115 0 -115 0 0 -45z"/>
<path d="M2440 925 c0 -35 4 -45 16 -45 9 0 14 -6 11 -12 -2 -7 -37 -109 -77
-225 -67 -197 -75 -213 -96 -213 -21 0 -24 -5 -24 -40 l0 -40 105 0 105 0 0
40 c0 38 -2 40 -30 40 -35 0 -35 1 -14 63 l16 47 113 0 112 0 20 -52 20 -53
-28 -3 c-27 -3 -29 -7 -29 -43 l0 -39 105 0 105 0 0 40 c0 37 -2 40 -27 40
-27 0 -30 5 -105 225 -69 202 -75 225 -57 225 16 0 19 7 19 45 l0 45 -130 0
-130 0 0 -45z m170 -184 c22 -61 40 -114 40 -116 0 -3 -38 -5 -85 -5 l-84 0
41 120 c23 66 43 119 45 117 1 -2 21 -54 43 -116z"/>
<path d="M2997 916 l-47 -55 0 -208 0 -209 48 -47 48 -47 140 0 140 0 47 48
47 48 0 208 0 207 -47 55 -48 54 -141 0 -140 0 -47 -54z m300 -58 c22 -21 23
-26 23 -197 0 -166 -1 -176 -22 -198 -19 -21 -30 -23 -115 -23 -90 0 -95 1
-118 28 -24 26 -24 32 -25 191 l0 165 27 28 c25 27 31 28 117 28 78 0 93 -3
113 -22z"/>
<path d="M4530 925 c0 -35 4 -45 16 -45 9 0 14 -6 12 -12 -3 -7 -37 -109 -78
-225 -67 -197 -74 -213 -96 -213 -21 0 -24 -5 -24 -40 l0 -40 105 0 105 0 0
40 c0 38 -1 40 -31 40 -23 0 -30 4 -26 14 3 8 11 33 18 55 l12 42 115 -3 115
-3 18 -52 18 -53 -30 0 c-27 0 -29 -2 -29 -40 l0 -40 105 0 105 0 0 39 c0 36
-3 40 -27 43 -26 3 -31 14 -103 223 -68 196 -74 220 -58 223 14 3 18 13 18 48
l0 44 -130 0 -130 0 0 -45z m170 -180 c18 -55 35 -106 38 -112 3 -10 -17 -13
-81 -13 l-86 0 42 119 c23 66 45 117 48 113 4 -4 21 -52 39 -107z"/>
<path d="M5040 925 c0 -45 0 -45 35 -45 l35 0 0 -225 0 -225 -35 0 c-34 0 -35
-1 -35 -40 l0 -40 203 0 203 0 47 48 47 48 0 84 c0 80 -1 86 -30 115 l-30 31
25 24 c22 21 25 32 25 91 0 67 0 68 -51 123 l-51 56 -194 0 -194 0 0 -45z
m362 -72 c35 -34 38 -86 6 -120 -19 -21 -30 -23 -115 -23 l-93 0 0 85 0 85 87
0 c81 0 89 -2 115 -27z m15 -255 c41 -40 46 -98 11 -135 -20 -21 -30 -23 -125
-23 l-103 0 0 95 0 95 92 0 c90 0 93 -1 125 -32z"/>
<path d="M157 691 c-47 -37 -102 -79 -121 -92 l-36 -24 0 -202 0 -203 35 0
c24 0 35 5 35 15 0 13 34 15 250 15 l250 0 0 40 0 40 -250 0 -250 0 0 25 0 25
250 0 250 0 0 40 0 40 -250 0 -250 0 0 25 0 25 250 0 250 0 0 31 c0 22 -5 32
-20 36 -11 3 -20 9 -20 14 0 5 -93 9 -206 9 l-206 0 30 25 c29 24 36 25 161
25 129 0 154 7 110 30 -11 7 -29 20 -40 31 -12 12 -33 19 -55 19 -32 0 -35 2
-24 15 11 13 10 18 -6 30 -46 36 -47 36 -137 -34z"/>
</g>
</svg>
